<svg width="22" height="27" viewBox="0 0 22 27" fill="none" xmlns="http://www.w3.org/2000/svg">
<path d="M20.5999 10.6C20.5999 15.9016 10.9999 25 10.9999 25C10.9999 25 1.3999 15.9016 1.3999 10.6C1.3999 8.05392 2.41133 5.61212 4.21168 3.81178C6.01203 2.01143 8.45382 1 10.9999 1C13.546 1 15.9878 2.01143 17.7881 3.81178C19.5885 5.61212 20.5999 8.05392 20.5999 10.6V10.6Z" stroke="#828282" stroke-width="1.6"/>
<path d="M10.9998 11.7999C11.3181 11.7999 11.6233 11.6735 11.8483 11.4484C12.0734 11.2234 12.1998 10.9182 12.1998 10.5999C12.1998 10.2816 12.0734 9.97642 11.8483 9.75137C11.6233 9.52633 11.3181 9.3999 10.9998 9.3999C10.6815 9.3999 10.3763 9.52633 10.1513 9.75137C9.92623 9.97642 9.7998 10.2816 9.7998 10.5999C9.7998 10.9182 9.92623 11.2234 10.1513 11.4484C10.3763 11.6735 10.6815 11.7999 10.9998 11.7999Z" fill="#828282" stroke="#828282" stroke-width="1.5" stroke-linecap="round" stroke-linejoin="round"/>
</svg>
