<svg width="20" height="26" viewBox="0 0 20 26" fill="none" xmlns="http://www.w3.org/2000/svg">
<path d="M19.1429 16.0934C19.1429 20.2762 17.2305 25.1905 10 25.1905C8.96584 25.2005 7.93443 25.0817 6.92956 24.837M4.24613 23.6469C1.67089 21.8641 0.857178 18.821 0.857178 16.0934V9.95244C0.857178 7.56615 1.85527 5.41148 3.45527 3.88615M6.00308 1.82291C7.22963 1.15602 8.60392 0.807605 10 0.809579C12.6713 0.809579 15.3227 1.91129 16.8572 3.8572M18.6949 5.71625C18.9844 6.56805 19.1429 7.47929 19.1429 8.42863V13.0001" stroke="#2EA448" stroke-width="1.6" stroke-linecap="round" stroke-linejoin="round"/>
<path d="M10 22.1431C7.96878 21.1268 6.9524 19.6182 6.9524 17.6174V9.95266C6.9524 9.14438 7.27349 8.36921 7.84503 7.79767C8.41657 7.22613 9.19174 6.90504 10 6.90504C10.8083 6.90504 11.5835 7.22613 12.155 7.79767C12.7266 8.36921 13.0476 9.14438 13.0476 9.95266V16.0936C13.0476 17.11 13.5551 17.6174 14.5715 17.6174C15.5878 17.6174 16.0953 17.11 16.0953 16.0936V9.29133C16.0953 8.59636 15.9369 7.91054 15.632 7.28599C14.5166 5.00028 12.6393 3.85742 10 3.85742C7.36078 3.85742 5.48345 5.00028 4.36802 7.28599C4.06319 7.91054 3.90476 8.59636 3.90479 9.29133V17.5717C3.90479 19.0955 4.15926 20.1119 4.66669 20.6193" stroke="#2EA448" stroke-width="1.6" stroke-linecap="round" stroke-linejoin="round"/>
<path d="M10 9.95264V16.0936C10 19.1107 11.5238 20.6193 14.5714 20.6193" stroke="#2EA448" stroke-width="1.6" stroke-linecap="round" stroke-linejoin="round"/>
</svg>
