<svg width="47" height="20" viewBox="0 0 47 20" fill="none" xmlns="http://www.w3.org/2000/svg">
<path d="M8.58494 2.76347C8.03416 3.42402 7.1529 3.94355 6.27165 3.86933C6.1615 2.97871 6.59478 2.02871 7.1015 1.4498C7.65228 0.774414 8.61431 0.291992 9.40009 0.254883C9.48822 1.17519 9.12838 2.08808 8.58494 2.76347ZM9.38541 4.04003C8.10759 3.96582 7.01337 4.7748 6.41118 4.7748C5.79431 4.7748 4.86899 4.07714 3.85556 4.09941C2.54102 4.12167 1.32196 4.87128 0.653676 6.0662C-0.726951 8.46347 0.293832 12.0037 1.6304 13.9556C2.28399 14.9205 3.06243 15.9818 4.09056 15.9447C5.06728 15.9076 5.44915 15.3064 6.62415 15.3064C7.8065 15.3064 8.15166 15.9447 9.17978 15.9299C10.2446 15.9076 10.9129 14.965 11.5665 14.0002C12.3082 12.9017 12.6167 11.8404 12.6313 11.781C12.6093 11.7588 10.5751 10.9721 10.5531 8.59706C10.531 6.608 12.1613 5.66542 12.2348 5.60605C11.3168 4.22558 9.88478 4.07714 9.38541 4.04003ZM16.7585 1.35332V15.8185H18.9837V10.8756H22.0607C24.8734 10.8756 26.8415 8.92362 26.8415 6.10331C26.8415 3.283 24.9028 1.35332 22.1342 1.35332H16.7585ZM18.9837 3.24589H21.5467C23.4781 3.24589 24.5797 4.28496 24.5797 6.11074C24.5797 7.93651 23.4781 8.99042 21.5393 8.99042H18.9837V3.24589ZM30.8953 15.9299C32.2906 15.9299 33.5831 15.2174 34.1706 14.0818H34.2147V15.8185H36.2709V8.61932C36.2709 6.53378 34.6186 5.183 32.0776 5.183C29.7203 5.183 27.9725 6.54862 27.9064 8.41893H29.9112C30.0801 7.52831 30.8953 6.94198 32.0115 6.94198C33.3701 6.94198 34.1339 7.58026 34.1339 8.76034V9.5619L31.3579 9.7326C28.7803 9.88846 27.385 10.9572 27.385 12.8127C27.3923 14.683 28.8317 15.9299 30.8953 15.9299ZM31.4975 14.2154C30.3151 14.2154 29.5587 13.6365 29.5587 12.7607C29.5587 11.8478 30.2858 11.3209 31.6737 11.2392L34.1412 11.0834V11.8998C34.1412 13.2506 33.0029 14.2154 31.4975 14.2154ZM39.0248 19.7521C41.1912 19.7521 42.212 18.9135 43.1006 16.3826L47.0001 5.32402H44.7383L42.1239 13.8666H42.0798L39.4655 5.32402H37.1448L40.9048 15.8556L40.6992 16.4939C40.3614 17.5775 39.8106 18.0006 38.8265 18.0006C38.6503 18.0006 38.3125 17.9783 38.1729 17.9635V19.7002C38.3051 19.7299 38.8559 19.7521 39.0248 19.7521Z" fill="#333333"/>
</svg>
