<svg width="69" height="28" viewBox="0 0 69 28" fill="none" xmlns="http://www.w3.org/2000/svg">
<path fill-rule="evenodd" clip-rule="evenodd" d="M5.30952 8.28564H19.0238C19.63 8.28564 20.2114 8.52646 20.64 8.95511C21.0687 9.38377 21.3095 9.96515 21.3095 10.5714V18.5714C21.3095 19.1776 21.0687 19.7589 20.64 20.1876C20.2114 20.6163 19.63 20.8571 19.0238 20.8571H5.30952C4.70331 20.8571 4.12193 20.6163 3.69327 20.1876C3.26462 19.7589 3.0238 19.1776 3.0238 18.5714V10.5714C3.0238 9.96515 3.26462 9.38377 3.69327 8.95511C4.12193 8.52646 4.70331 8.28564 5.30952 8.28564V8.28564Z" stroke="#333333" stroke-width="2" stroke-linecap="round" stroke-linejoin="round"/>
<path fill-rule="evenodd" clip-rule="evenodd" d="M2.45239 12.2856H21.881V14.5714H2.45239V12.2856Z" fill="#333333"/>
<path d="M36.9674 20.2109C39.7711 20.2109 41.8717 18.5146 42.2672 15.9922L42.276 15.9043H40.3248L40.2985 15.9834C39.8239 17.5918 38.6549 18.4707 36.9674 18.4707C34.6207 18.4707 33.1002 16.5898 33.1002 13.6543V13.6455C33.1002 10.71 34.6119 8.84668 36.9674 8.84668C38.6725 8.84668 39.8502 9.75195 40.2721 11.2373L40.3248 11.4131H42.276L42.2584 11.334C41.8629 8.8291 39.7623 7.10645 36.9674 7.10645C33.3727 7.10645 31.0875 9.62012 31.0875 13.6455V13.6543C31.0875 17.6797 33.3727 20.2109 36.9674 20.2109ZM46.5299 20.167C47.7516 20.167 48.8239 19.5342 49.36 18.541H49.3951V20H51.3024V13.6279C51.3024 11.7734 49.8698 10.5781 47.611 10.5781C45.3346 10.5781 43.9547 11.7998 43.8229 13.3906L43.8141 13.4873H45.6071L45.6246 13.4082C45.7828 12.6699 46.4596 12.1514 47.5582 12.1514C48.736 12.1514 49.3951 12.7666 49.3951 13.7861V14.4805L46.8815 14.6299C44.693 14.7617 43.4449 15.7461 43.4449 17.3545V17.3721C43.4449 19.0332 44.6842 20.167 46.5299 20.167ZM45.361 17.3281V17.3105C45.361 16.5283 45.9938 16.0273 47.1364 15.957L49.3951 15.8164V16.5371C49.3951 17.7412 48.3844 18.6465 47.0485 18.6465C46.0289 18.6465 45.361 18.1367 45.361 17.3281ZM53.1481 20H55.0465V14.4893C55.0465 13.1094 55.8024 12.3096 57.024 12.3096C57.3932 12.3096 57.7272 12.3535 57.8766 12.415V10.6484C57.7272 10.6221 57.4899 10.5781 57.2174 10.5781C56.1627 10.5781 55.3893 11.2549 55.0905 12.3359H55.0465V10.7539H53.1481V20ZM62.1041 20.1846C63.4313 20.1846 64.4508 19.5166 65.0045 18.4355H65.0397V20H66.9469V7.31738H65.0397V12.3271H65.0045C64.4508 11.2373 63.3961 10.5781 62.0865 10.5781C59.7662 10.5781 58.2369 12.4238 58.2369 15.3682V15.377C58.2369 18.3213 59.7487 20.1846 62.1041 20.1846ZM62.6051 18.5498C61.1022 18.5498 60.1793 17.3457 60.1793 15.377V15.3682C60.1793 13.417 61.111 12.2041 62.6051 12.2041C64.0289 12.2041 65.0485 13.4521 65.0485 15.3682V15.377C65.0485 17.3018 64.0377 18.5498 62.6051 18.5498Z" fill="#333333"/>
</svg>
