<svg width="43" height="16" viewBox="0 0 43 16" fill="none" xmlns="http://www.w3.org/2000/svg">
<path d="M43 3.55625L37.3874 16H35.6513L37.7367 11.6454L34.0416 3.55491H35.8677L38.5416 9.75612H38.5766L41.1659 3.55491L43 3.55625ZM19.6815 7.40417V12.4454H17.9172V0.00164869H22.5852C23.6933 -0.0284912 24.7724 0.355538 25.6085 1.07763C26.4349 1.75095 26.8891 2.70293 26.8756 3.70958C26.8813 4.21617 26.7701 4.71734 26.5505 5.17469C26.3308 5.63205 26.0086 6.03346 25.6085 6.34819C24.7969 7.05618 23.7892 7.40417 22.5852 7.40417H19.6815ZM19.6748 1.53629V5.8762H22.6282C23.2712 5.89908 23.8973 5.66962 24.371 5.23755C24.8265 4.83489 25.0778 4.28556 25.0778 3.71624C25.0778 3.14025 24.8252 2.59093 24.371 2.19494C24.139 1.97587 23.8655 1.80472 23.5663 1.69142C23.2672 1.57812 22.9483 1.52494 22.6282 1.53495L19.6748 1.53629ZM30.4096 3.55625C31.5289 3.55625 32.4184 3.86824 33.0687 4.48689C33.7191 5.10555 34.0416 5.9522 34.0416 7.02818V12.1734H32.5863V11.0134H32.5232C31.893 11.9654 31.0599 12.4441 30.0172 12.4441C29.121 12.4441 28.3792 12.1734 27.7773 11.6241C27.4868 11.369 27.2556 11.0543 27.0997 10.7019C26.9438 10.3494 26.8669 9.96762 26.8743 9.58279C26.8743 8.72148 27.1887 8.03482 27.8256 7.52017C28.4558 7.01351 29.3024 6.75618 30.3585 6.75618C31.2615 6.75618 32.0032 6.92951 32.5837 7.26951V6.90818C32.5855 6.64589 32.5309 6.38623 32.4234 6.14662C32.3158 5.907 32.1579 5.69297 31.9602 5.51887C31.562 5.14898 31.0357 4.94514 30.4902 4.94955C29.6437 4.94955 28.9718 5.31754 28.4746 6.05353L27.1377 5.19221C27.8727 4.10157 28.9637 3.55358 30.4055 3.55358L30.4096 3.55625ZM28.4437 9.61879C28.4407 9.81637 28.4848 10.0119 28.5724 10.1893C28.6599 10.3668 28.7885 10.5213 28.9476 10.6401C29.2835 10.9108 29.7041 11.0574 30.1301 11.0494C30.767 11.0494 31.3824 10.7854 31.8379 10.3201C32.3203 9.87612 32.5944 9.2508 32.5944 8.59748C32.1187 8.20815 31.4603 8.01349 30.6138 8.01349C29.9903 8.01349 29.4797 8.16682 29.0672 8.47215C28.6547 8.78414 28.4437 9.16013 28.4437 9.61746V9.61879ZM7.31544 0.00164869C9.12459 -0.0200026 10.8741 0.643199 12.2078 1.85628L10.1224 3.88424C9.36061 3.18292 8.35443 2.80201 7.31544 2.82159C6.40875 2.826 5.52597 3.11059 4.7898 3.6358C4.05364 4.16101 3.50067 4.90075 3.20775 5.7522C2.89998 6.63405 2.89998 7.59297 3.20775 8.47481C3.50067 9.32626 4.05364 10.066 4.7898 10.5912C5.52597 11.1164 6.40875 11.401 7.31544 11.4054C8.30171 11.4054 9.14958 11.1628 9.80665 10.7321C10.1847 10.4878 10.5086 10.1698 10.7588 9.79729C11.009 9.42481 11.1802 9.0057 11.2619 8.56548H7.31409V5.82953H14.2073C14.2919 6.30819 14.3336 6.78818 14.3336 7.27351C14.3336 9.44013 13.5354 11.2734 12.1568 12.5094C10.9461 13.5934 9.28798 14.224 7.31409 14.224C5.96678 14.2309 4.64368 13.8688 3.49034 13.1777C2.337 12.4865 1.39813 11.4932 0.777007 10.3068C0.266333 9.31813 0 8.22312 0 7.11217C0 6.00123 0.266333 4.90622 0.777007 3.91757C1.39739 2.73231 2.33497 1.73964 3.48678 1.04858C4.63858 0.357525 5.96005 -0.00517609 7.30603 0.000316117L7.31544 0.00164869Z" fill="#333333"/>
</svg>
