<svg width="28" height="26" viewBox="0 0 28 26" fill="#BDBDBD" xmlns="http://www.w3.org/2000/svg">
<path d="M1.62181 9.03429L9.55619 7.88117L13.1031 0.690539C13.1999 0.493664 13.3593 0.334289 13.5562 0.237414C14.0499 -0.00633611 14.6499 0.196789 14.8968 0.690539L18.4437 7.88117L26.3781 9.03429C26.5968 9.06554 26.7968 9.16866 26.9499 9.32491C27.1351 9.51519 27.2371 9.77117 27.2336 10.0366C27.23 10.3021 27.1213 10.5552 26.9312 10.7405L21.1906 16.3374L22.5468 24.2405C22.5786 24.4244 22.5583 24.6135 22.4881 24.7863C22.4179 24.9592 22.3007 25.1089 22.1497 25.2186C21.9988 25.3282 21.8201 25.3934 21.634 25.4067C21.4479 25.4199 21.2618 25.3808 21.0968 25.2937L13.9999 21.5624L6.90306 25.2937C6.70931 25.3968 6.48431 25.4312 6.26869 25.3937C5.72494 25.2999 5.35931 24.7843 5.45306 24.2405L6.80931 16.3374L1.06869 10.7405C0.912437 10.5874 0.809313 10.3874 0.778063 10.1687C0.693689 9.62179 1.07494 9.11554 1.62181 9.03429Z" />
</svg>
