<svg
    width="16"
    height="16"
    viewBox="0 0 16 16"
    fill="none"
    xmlns="http://www.w3.org/2000/svg"
    stroke="#ABABAB"
>
    <path
        d="M7.99999 14.6666C9.54236 14.6666 11.037 14.1318 12.2293 13.1534C13.4216 12.1749 14.2377 10.8133 14.5386 9.30059C14.8396 7.78786 14.6067 6.21759 13.8796 4.85734C13.1525 3.49708 11.9763 2.43101 10.5514 1.84075C9.12642 1.2505 7.54088 1.17259 6.06492 1.6203C4.58896 2.06801 3.3139 3.01363 2.45699 4.29606C1.60008 5.57848 1.21435 7.11835 1.36551 8.6533C1.51667 10.1882 2.19538 11.6233 3.28599 12.7139C4.53622 13.9642 6.23189 14.6666 7.99999 14.6666V14.6666Z"
        stroke-linecap="round"
        stroke-linejoin="round"
    />
    <path d="M6 10L10 6" stroke-linecap="round" stroke-linejoin="round" />
    <path d="M6 6L10 10" stroke-linecap="round" stroke-linejoin="round" />
</svg>