<svg width="24" height="22" viewBox="0 0 24 22" fill="none" xmlns="http://www.w3.org/2000/svg">
<path d="M1.33325 20.3332H19.9999M17.3333 1.6665H1.33325V10.9998C1.33325 12.4143 1.89515 13.7709 2.89535 14.7711C3.89554 15.7713 5.2521 16.3332 6.66658 16.3332H11.9999C13.4144 16.3332 14.771 15.7713 15.7712 14.7711C16.7713 13.7709 17.3333 12.4143 17.3333 10.9998V9.6665V1.6665ZM17.3333 1.6665V9.6665V1.6665ZM17.3333 1.6665H19.9999C20.7072 1.6665 21.3854 1.94746 21.8855 2.44755C22.3856 2.94765 22.6666 3.62593 22.6666 4.33317V6.99984C22.6666 7.70708 22.3856 8.38536 21.8855 8.88546C21.3854 9.38555 20.7072 9.6665 19.9999 9.6665H17.3333V1.6665Z" stroke="#828282" stroke-width="1.6" stroke-linecap="round" stroke-linejoin="round"/>
</svg>
