<svg width="22" height="24" viewBox="0 0 22 24" fill="none" xmlns="http://www.w3.org/2000/svg">
<path d="M12 12C13.6832 12 15.0476 10.6356 15.0476 8.9524C15.0476 7.26925 13.6832 5.90479 12 5.90479C10.3169 5.90479 8.95239 7.26925 8.95239 8.9524C8.95239 10.6356 10.3169 12 12 12Z" stroke="#2EA448" stroke-width="1.6" stroke-linecap="round" stroke-linejoin="round"/>
<path d="M1.33325 15.0478H2.85706M1.33325 5.90492H2.85706V4.38111C2.85706 3.57284 3.17815 2.79766 3.74969 2.22612C4.32123 1.65458 5.0964 1.3335 5.90468 1.3335H18.0952C18.9034 1.3335 19.6786 1.65458 20.2501 2.22612C20.8217 2.79766 21.1428 3.57284 21.1428 4.38111V19.6192C21.1428 20.4275 20.8217 21.2027 20.2501 21.7742C19.6786 22.3457 18.9034 22.6668 18.0952 22.6668H5.90468C5.0964 22.6668 4.32123 22.3457 3.74969 21.7742C3.17815 21.2027 2.85706 20.4275 2.85706 19.6192V18.0954H1.33325V5.90492ZM1.33325 12.0002H2.85706H1.33325ZM1.33325 8.95254H2.85706H1.33325Z" stroke="#2EA448" stroke-width="1.6" stroke-linecap="round" stroke-linejoin="round"/>
<path fill-rule="evenodd" clip-rule="evenodd" d="M16.5713 16.5714V15.0476C16.5713 14.2393 16.2502 13.4642 15.6787 12.8926C15.1072 12.3211 14.332 12 13.5237 12H10.4761C9.66781 12 8.89263 12.3211 8.32109 12.8926C7.74955 13.4642 7.42847 14.2393 7.42847 15.0476V16.5714C7.42847 16.9756 7.58901 17.3632 7.87478 17.6489C8.16055 17.9347 8.54814 18.0952 8.95228 18.0952H15.0475C15.4517 18.0952 15.8392 17.9347 16.125 17.6489C16.4108 17.3632 16.5713 16.9756 16.5713 16.5714Z" stroke="#2EA448" stroke-width="1.6" stroke-linecap="round" stroke-linejoin="round"/>
</svg>
