<svg width="26" height="24" viewBox="0 0 26 24" fill="none" xmlns="http://www.w3.org/2000/svg">
<path fill-rule="evenodd" clip-rule="evenodd" d="M1 5.14293V18.8572C1 19.7665 1.36122 20.6386 2.00421 21.2816C2.64719 21.9246 3.51926 22.2858 4.42857 22.2858H21.5714C22.4807 22.2858 23.3528 21.9246 23.9958 21.2816C24.6388 20.6386 25 19.7665 25 18.8572V5.14293C25 4.23361 24.6388 3.36154 23.9958 2.71856C23.3528 2.07558 22.4807 1.71436 21.5714 1.71436H4.42857C3.51926 1.71436 2.64719 2.07558 2.00421 2.71856C1.36122 3.36154 1 4.23361 1 5.14293V5.14293Z" stroke="#828282" stroke-width="1.6" stroke-linecap="round" stroke-linejoin="round"/>
<path d="M4.42847 6.85693L12.9999 11.9998L21.5713 6.85693" stroke="#828282" stroke-width="1.6" stroke-linecap="round" stroke-linejoin="round"/>
</svg>
