<svg width="20" height="24" viewBox="0 0 20 24" fill="none" xmlns="http://www.w3.org/2000/svg">
<path d="M3.9048 16.5716H5.42861M19.1429 19.6192V4.38111C19.1429 3.57284 18.8218 2.79766 18.2503 2.22612C17.6787 1.65458 16.9036 1.3335 16.0953 1.3335H3.9048C3.09652 1.3335 2.32134 1.65458 1.7498 2.22612C1.17827 2.79766 0.857178 3.57284 0.857178 4.38111V19.6192C0.857178 20.4275 1.17827 21.2027 1.7498 21.7742C2.32134 22.3457 3.09652 22.6668 3.9048 22.6668H16.0953C16.9036 22.6668 17.6787 22.3457 18.2503 21.7742C18.8218 21.2027 19.1429 20.4275 19.1429 19.6192V19.6192ZM8.47622 7.42873H16.0953H8.47622ZM3.9048 7.42873H5.42861H3.9048ZM8.47622 12.0002H16.0953H8.47622ZM3.9048 12.0002H5.42861H3.9048ZM8.47622 16.5716H16.0953H8.47622Z" stroke="#2EA448" stroke-width="1.6" stroke-linecap="round" stroke-linejoin="round"/>
</svg>
