<svg width="20" height="14" viewBox="0 0 20 14" fill="none" xmlns="http://www.w3.org/2000/svg">
<path d="M10 1C13.2587 1 16.155 3.09104 17.981 4.80425C19.2729 6.0163 19.2729 7.9837 17.981 9.19575C16.155 10.909 13.2587 13 10 13C6.7413 13 3.84504 10.909 2.01898 9.19575C0.727091 7.9837 0.72709 6.0163 2.01898 4.80425C3.84504 3.09104 6.7413 1 10 1Z" stroke="#3B3B3B" stroke-linecap="round" stroke-linejoin="round"/>
<path d="M10 10.0002C10.5934 10.0014 11.1738 9.82597 11.6671 9.49614C12.1604 9.16631 12.5444 8.69705 12.77 8.14818C12.997 7.60008 13.0565 6.99695 12.9408 6.41508C12.8251 5.83322 12.5394 5.29873 12.12 4.87917C11.7027 4.45984 11.1701 4.17408 10.59 4.05818C10.0059 3.94175 9.40046 4.00089 8.84998 4.22816C8.30373 4.45785 7.83712 4.8431 7.50818 5.33598C7.17924 5.82886 7.00252 6.40761 7 7.00017C7 7.79582 7.31605 8.55887 7.87866 9.12147C8.44127 9.68408 9.20435 10.0002 10 10.0002Z" stroke="#3B3B3B" stroke-linecap="round" stroke-linejoin="round"/>
</svg>
