<svg width="18" height="24" viewBox="0 0 18 24" fill="none" xmlns="http://www.w3.org/2000/svg">
<path fill-rule="evenodd" clip-rule="evenodd" d="M4.42848 1.3335H13.5713C14.3796 1.3335 15.1548 1.65458 15.7263 2.22612C16.2979 2.79766 16.619 3.57284 16.619 4.38111V19.6192C16.619 20.4275 16.2979 21.2027 15.7263 21.7742C15.1548 22.3457 14.3796 22.6668 13.5713 22.6668H4.42848C3.6202 22.6668 2.84503 22.3457 2.27349 21.7742C1.70195 21.2027 1.38086 20.4275 1.38086 19.6192V4.38111C1.38086 3.57284 1.70195 2.79766 2.27349 2.22612C2.84503 1.65458 3.6202 1.3335 4.42848 1.3335V1.3335Z" stroke="#828282" stroke-width="1.6" stroke-linecap="round" stroke-linejoin="round"/>
<path d="M8.99988 19.6194C9.84146 19.6194 10.5237 18.9372 10.5237 18.0956C10.5237 17.254 9.84146 16.5718 8.99988 16.5718C8.15831 16.5718 7.47607 17.254 7.47607 18.0956C7.47607 18.9372 8.15831 19.6194 8.99988 19.6194Z" fill="#828282"/>
</svg>
