<svg width="22" height="14" viewBox="0 0 22 14" fill="#828282" xmlns="http://www.w3.org/2000/svg">
<path d="M11.7019 8.95094L3.43568 8.95833L4.56969 7.78365C4.75885 7.58771 4.86512 7.32196 4.86512 7.04486C4.86512 6.76776 4.75885 6.50201 4.56969 6.30607C4.38054 6.11013 4.12399 6.00005 3.85648 6.00005C3.58897 6.00005 3.33242 6.11013 3.14326 6.30607L0.29039 9.26123C0.198316 9.35894 0.125624 9.4744 0.0764257 9.60108C-0.0254748 9.85657 -0.0254755 10.1435 0.0764251 10.399C0.125624 10.5256 0.198316 10.6411 0.29039 10.7388L3.14326 13.694C3.33242 13.8899 3.58897 14 3.85648 14C4.12399 14 4.38054 13.8899 4.5697 13.694C4.75885 13.498 4.86512 13.2323 4.86512 12.9552C4.86512 12.6781 4.75885 12.4123 4.56969 12.2164L3.43568 11.0417L11.7019 11.0491C11.9705 11.0491 12.2281 10.9386 12.418 10.7418C12.6079 10.5451 12.7146 10.2783 12.7146 10C12.7146 9.72179 12.6079 9.45495 12.418 9.25821C12.2281 9.06147 11.9705 8.95094 11.7019 8.95094ZM21.9236 4.39892C22.0255 4.14343 22.0255 3.85652 21.9236 3.60103C21.8744 3.47435 21.8017 3.35889 21.7096 3.26118L18.8567 0.306018C18.6676 0.110078 18.411 0 18.1435 0C17.876 0 17.6195 0.110078 17.4303 0.306018C17.2411 0.501958 17.1349 0.767708 17.1349 1.04481C17.1349 1.32191 17.2411 1.58766 17.4303 1.7836L18.5643 2.95828L10.2981 2.95089C10.165 2.95033 10.033 2.97708 9.90991 3.0296C9.78679 3.08212 9.67493 3.15937 9.58078 3.2569C9.48662 3.35443 9.41204 3.4703 9.36134 3.59784C9.31064 3.72538 9.28481 3.86205 9.28536 3.99998C9.28481 4.1379 9.31064 4.27457 9.36134 4.40211C9.41204 4.52965 9.48662 4.64552 9.58078 4.74305C9.67493 4.84058 9.78679 4.91783 9.90991 4.97035C10.033 5.02288 10.165 5.04963 10.2981 5.04906L18.5643 5.04167L17.4303 6.21635C17.2411 6.41229 17.1349 6.67804 17.1349 6.95514C17.1349 7.23224 17.2411 7.49799 17.4303 7.69393C17.6195 7.88987 17.876 7.99995 18.1435 7.99995C18.411 7.99995 18.6676 7.88987 18.8567 7.69393L21.7096 4.73877C21.8017 4.64106 21.8744 4.5256 21.9236 4.39892Z" />
</svg>
